<?xml version="1.0" encoding="UTF-8" standalone="no"?>
<!-- Created with Inkscape (http://www.inkscape.org/) -->

<svg
   width="210mm"
   height="297mm"
   viewBox="0 0 210 297"
   version="1.1"
   id="svg1"
   xml:space="preserve"
   inkscape:export-batch-name=""
   inkscape:export-batch-path="/home/offa47/Games/GameDev/UI/Button/Button2"
   inkscape:version="1.4.3 (0d15f75042, 2025-12-25)"
   sodipodi:docname="Rhombusy button.svg"
   xmlns:inkscape="http://www.inkscape.org/namespaces/inkscape"
   xmlns:sodipodi="http://sodipodi.sourceforge.net/DTD/sodipodi-0.dtd"
   xmlns:xlink="http://www.w3.org/1999/xlink"
   xmlns="http://www.w3.org/2000/svg"
   xmlns:svg="http://www.w3.org/2000/svg"><sodipodi:namedview
     id="namedview1"
     pagecolor="#505050"
     bordercolor="#eeeeee"
     borderopacity="1"
     inkscape:showpageshadow="0"
     inkscape:pageopacity="0"
     inkscape:pagecheckerboard="0"
     inkscape:deskcolor="#505050"
     inkscape:document-units="mm"
     inkscape:zoom="1.5411756"
     inkscape:cx="461.0117"
     inkscape:cy="451.6033"
     inkscape:window-width="1280"
     inkscape:window-height="987"
     inkscape:window-x="0"
     inkscape:window-y="0"
     inkscape:window-maximized="1"
     inkscape:current-layer="rect1" /><defs
     id="defs1"><inkscape:path-effect
       effect="fillet_chamfer"
       id="path-effect1"
       is_visible="true"
       lpeversion="1"
       nodesatellites_param="F,0,0,1,0,1.3229166,0,1 @ F,0,0,1,0,1.3229166,0,1 @ F,0,0,1,0,1.3229166,0,1 @ F,0,0,1,0,1.3229166,0,1 @ F,0,0,1,0,1.3229166,0,1 @ F,0,0,1,0,1.3229166,0,1"
       radius="5"
       unit="px"
       method="auto"
       mode="F"
       chamfer_steps="1"
       flexible="false"
       use_knot_distance="true"
       apply_no_radius="true"
       apply_with_radius="true"
       only_selected="false"
       hide_knots="false" /><linearGradient
       inkscape:collect="always"
       xlink:href="#linearGradient24"
       id="linearGradient4"
       x1="106.83699"
       y1="26.546431"
       x2="106.83699"
       y2="226.84776"
       gradientUnits="userSpaceOnUse" /><linearGradient
       inkscape:collect="always"
       xlink:href="#linearGradient1"
       id="linearGradient6"
       x1="106.83699"
       y1="33.465897"
       x2="106.83699"
       y2="233.76714"
       gradientUnits="userSpaceOnUse" /><linearGradient
       id="linearGradient24"
       inkscape:collect="always"><stop
         style="stop-color:#151515;stop-opacity:0.89411765;"
         offset="0"
         id="stop23" /><stop
         style="stop-color:#3a426e;stop-opacity:1;"
         offset="1"
         id="stop24" /></linearGradient><inkscape:path-effect
       effect="fillet_chamfer"
       id="path-effect5"
       is_visible="true"
       lpeversion="1"
       nodesatellites_param="F,0,0,1,0,0.26458333,0,1 @ F,0,0,1,0,0.26458333,0,1 @ F,0,0,1,0,0.26458333,0,1 @ F,0,0,1,0,0.26458333,0,1"
       radius="1"
       unit="px"
       method="auto"
       mode="F"
       chamfer_steps="1"
       flexible="false"
       use_knot_distance="true"
       apply_no_radius="true"
       apply_with_radius="true"
       only_selected="false"
       hide_knots="false" /><inkscape:path-effect
       effect="fillet_chamfer"
       id="path-effect3"
       is_visible="true"
       lpeversion="1"
       nodesatellites_param="F,0,0,1,0,0.26458333,0,1 @ F,0,0,1,0,0.26458333,0,1 @ F,0,0,1,0,0.26458333,0,1 @ F,0,0,1,0,0.26458333,0,1"
       radius="1"
       unit="px"
       method="auto"
       mode="F"
       chamfer_steps="1"
       flexible="false"
       use_knot_distance="true"
       apply_no_radius="true"
       apply_with_radius="true"
       only_selected="false"
       hide_knots="false" /><linearGradient
       id="linearGradient1"
       inkscape:collect="always"><stop
         style="stop-color:#151515;stop-opacity:0.89411765;"
         offset="0"
         id="stop1" /><stop
         style="stop-color:#303661;stop-opacity:1;"
         offset="1"
         id="stop2" /></linearGradient><linearGradient
       inkscape:collect="always"
       xlink:href="#linearGradient1"
       id="linearGradient2"
       x1="108.99002"
       y1="77.448883"
       x2="108.99002"
       y2="177.44888"
       gradientUnits="userSpaceOnUse" /><linearGradient
       inkscape:collect="always"
       xlink:href="#linearGradient24"
       id="linearGradient5"
       gradientUnits="userSpaceOnUse"
       x1="108.99002"
       y1="77.448883"
       x2="108.99002"
       y2="177.44888" /><clipPath
       clipPathUnits="userSpaceOnUse"
       id="clipPath25"><path
         style="baseline-shift:baseline;display:inline;overflow:visible;opacity:1;vector-effect:none;fill:url(#linearGradient2);stroke-width:1;stroke-linejoin:bevel;stroke-dashoffset:57.5868;enable-background:accumulate;stop-color:#000000;stop-opacity:1"
         d="m 59.517907,102.71219 h 98.944223 a 0.26458333,0.26458333 0 0 1 0.26458,0.26458 V 151.921 a 0.26458333,0.26458333 0 0 1 -0.26458,0.26458 H 59.517907 A 0.26458333,0.26458333 0 0 1 59.253324,151.921 v -48.94423 a 0.26458333,0.26458333 0 0 1 0.264583,-0.26458 z"
         id="path25"
         inkscape:label="Fill" /></clipPath><clipPath
       clipPathUnits="userSpaceOnUse"
       id="clipPath26"><path
         style="fill:url(#linearGradient5);stroke:none;stroke-width:0.526611;stroke-linejoin:bevel;stroke-dashoffset:57.5868"
         id="path26"
         width="99.473389"
         height="49.473392"
         x="59.253323"
         y="102.71219"
         sodipodi:type="rect"
         d="m 59.517906,102.71219 h 98.944224 a 0.26458333,0.26458333 45 0 1 0.26458,0.26458 V 151.921 a 0.26458333,0.26458333 135 0 1 -0.26458,0.26458 H 59.517906 A 0.26458333,0.26458333 45 0 1 59.253323,151.921 v -48.94423 a 0.26458333,0.26458333 135 0 1 0.264583,-0.26458 z"
         transform="matrix(0.99482243,0,0,0.49999604,0.56430177,75.534888)"
         inkscape:label="DarkFill"
         inkscape:path-effect="#path-effect5-5" /></clipPath><inkscape:path-effect
       effect="fillet_chamfer"
       id="path-effect5-5"
       is_visible="true"
       lpeversion="1"
       nodesatellites_param="F,0,0,1,0,0.26458333,0,1 @ F,0,0,1,0,0.26458333,0,1 @ F,0,0,1,0,0.26458333,0,1 @ F,0,0,1,0,0.26458333,0,1"
       radius="1"
       unit="px"
       method="auto"
       mode="F"
       chamfer_steps="1"
       flexible="false"
       use_knot_distance="true"
       apply_no_radius="true"
       apply_with_radius="true"
       only_selected="false"
       hide_knots="false" /></defs><g
     inkscape:label="Layer 1"
     inkscape:groupmode="layer"
     id="layer1"><g
       id="rect1"
       inkscape:label="Button"
       style="opacity:1"><g
         id="g10"
         inkscape:label="Fill"><path
           style="baseline-shift:baseline;display:inline;overflow:visible;vector-effect:none;fill:url(#linearGradient4);stroke-miterlimit:7;stroke-dashoffset:37.7953;enable-background:accumulate;stop-color:#000000;stop-opacity:1;fill-opacity:1"
           d="M 40.159911,111.58959 H 173.51407 a 6.0678303,6.0678303 12.29924 0 1 2.52578,0.55067 l 30.59428,14.00618 a 0.60563583,0.60563583 90.000007 0 1 0,1.10134 l -30.59428,14.00617 a 6.067834,6.067834 167.70077 0 1 -2.52578,0.55067 H 40.159911 a 6.0678339,6.0678339 12.299232 0 1 -2.525775,-0.55067 L 7.0398525,127.24778 a 0.60563583,0.60563583 89.999993 0 1 -1e-7,-1.10134 L 37.634136,112.14026 a 6.0678303,6.0678303 167.70076 0 1 2.525775,-0.55067 z"
           id="path1"
           inkscape:label="Fill" /><path
           id="path1-3"
           style="baseline-shift:baseline;display:inline;overflow:visible;vector-effect:none;fill:url(#linearGradient6);fill-opacity:1;stroke-miterlimit:7;stroke-dashoffset:37.7953;enable-background:accumulate;stop-color:#000000"
           inkscape:label="DarkerFill"
           d="m 6.8196494,125.87307 a 0.60563583,0.60563583 0 0 0 0.2201416,0.92966 l 30.593998,14.00638 a 6.0678339,6.0678339 0 0 0 2.525944,0.55087 H 173.51387 a 6.067834,6.067834 0 0 0 2.52594,-0.55087 l 30.594,-14.00638 a 0.60563583,0.60563583 0 0 0 0.22066,-0.92966 z" /></g><path
         style="baseline-shift:baseline;display:inline;overflow:visible;stroke-miterlimit:7;stroke-dashoffset:0;enable-background:accumulate;stop-color:#000000;stop-opacity:1;fill:#3e3e3e;fill-opacity:1;stroke:#ffffff;stroke-opacity:1;stroke-width:0.5;stroke-dasharray:3, 0.5"
         d="m 40.160156,111.08984 c -0.943526,0 -1.876476,0.20296 -2.734375,0.59571 L 6.8320312,125.69141 c -0.8273784,0.37878 -0.8273785,1.63293 0,2.01172 l 30.5937498,14.00585 c 0.857899,0.39275 1.790849,0.59571 2.734375,0.59571 H 173.51367 c 0.94353,0 1.87648,-0.20296 2.73438,-0.59571 l 30.59375,-14.00585 c 0.82738,-0.37879 0.82738,-1.63294 0,-2.01172 l -30.59375,-14.00586 c -0.8579,-0.39275 -1.79085,-0.59571 -2.73438,-0.59571 z m 0,1 H 173.51367 c 0.79989,0 1.59107,0.17291 2.31836,0.50586 l 30.59375,14.00586 c 0.11537,0.0528 0.11537,0.13859 0,0.19141 l -30.59375,14.00586 c -0.72729,0.33296 -1.51847,0.50586 -2.31836,0.50586 H 40.160156 c -0.799885,0 -1.591065,-0.17291 -2.318359,-0.50586 L 7.2480469,126.79297 c -0.1153683,-0.0528 -0.1153684,-0.13859 0,-0.19141 L 37.841797,112.5957 c 0.727294,-0.33295 1.518474,-0.50586 2.318359,-0.50586 z"
         id="path2"
         inkscape:label="Stroke" /></g></g></svg>
