<?xml version="1.0" encoding="UTF-8" standalone="no"?>
<!-- Created with Inkscape (http://www.inkscape.org/) -->

<svg
   width="210mm"
   height="297mm"
   viewBox="0 0 210 297"
   version="1.1"
   id="svg1"
   inkscape:export-batch-name=""
   inkscape:export-batch-path="../../UI/Star"
   inkscape:version="1.4.3 (0d15f75042, 2025-12-25)"
   sodipodi:docname="Star.svg"
   xmlns:inkscape="http://www.inkscape.org/namespaces/inkscape"
   xmlns:sodipodi="http://sodipodi.sourceforge.net/DTD/sodipodi-0.dtd"
   xmlns="http://www.w3.org/2000/svg"
   xmlns:svg="http://www.w3.org/2000/svg">
  <sodipodi:namedview
     id="namedview1"
     pagecolor="#505050"
     bordercolor="#eeeeee"
     borderopacity="1"
     inkscape:showpageshadow="0"
     inkscape:pageopacity="0"
     inkscape:pagecheckerboard="0"
     inkscape:deskcolor="#505050"
     inkscape:document-units="mm"
     inkscape:zoom="1.5411756"
     inkscape:cx="370.82082"
     inkscape:cy="396.12618"
     inkscape:window-width="1920"
     inkscape:window-height="1093"
     inkscape:window-x="0"
     inkscape:window-y="0"
     inkscape:window-maximized="1"
     inkscape:current-layer="layer1" />
  <defs
     id="defs1" />
  <g
     inkscape:label="Layer 1"
     inkscape:groupmode="layer"
     id="layer1">
    <g
       id="path19"
       inkscape:label="Fill"
       style="opacity:1"
       transform="translate(13.596069,23.793121)">
      <path
         style="baseline-shift:baseline;display:inline;overflow:visible;vector-effect:none;fill:#ffffff;stroke-width:0.590383;stroke-linejoin:round;stroke-dashoffset:57.5868;enable-background:accumulate;stop-color:#000000;stop-opacity:1"
         d="m 92.259275,59.88955 -10.325739,29.812691 -9.401624,3.256216 c 0.489784,1.242089 -0.160075,1.550703 -1.206627,0.417972 l -19.20444,6.651551 29.812691,10.32574 10.325739,29.81269 7.445697,-21.49749 v -3e-4 c -4.54e-4,-0.002 -5.9e-4,-0.005 -0.0012,-0.007 -0.01358,-0.0726 -0.02592,-0.14522 -0.03784,-0.21814 -0.0677,-0.41299 -5.91e-4,-0.62952 0.09793,-0.63245 0.05378,-0.002 0.117191,0.0603 0.173289,0.18824 l 2.647869,-7.64523 7.8298,-2.71193 c 0.16178,-0.2301 0.30528,-0.33631 0.39876,-0.33621 0.0673,7e-5 0.10873,0.0553 0.11227,0.15926 l 21.47216,-7.43686 -29.66594,-10.274783 c -1.09483,0.157386 -1.26919,-0.312097 -0.35543,-0.652891 z"
         id="path20"
         inkscape:label="Fill" />
      <path
         style="baseline-shift:baseline;display:inline;overflow:visible;vector-effect:none;fill:#3d3d3d;fill-opacity:1;stroke-width:0.590383;stroke-linejoin:round;stroke-dashoffset:57.5868;enable-background:accumulate;stop-color:#000000;stop-opacity:1"
         d="m 92.259746,59.446655 a 0.44283178,0.44283178 0 0 0 -0.418573,0.297498 L 81.585569,89.354414 72.38735,92.540409 a 0.44283178,0.44283178 0 0 0 -0.267517,0.580005 c 0.08482,0.215106 0.09595,0.338696 0.106084,0.445094 -0.139236,-0.07909 -0.341135,-0.236516 -0.575393,-0.490065 a 0.44283178,0.44283178 0 0 0 -0.470462,-0.117615 l -19.203601,6.65219 a 0.44283178,0.44283178 0 0 0 0,0.835992 l 29.609108,10.2556 10.255604,29.61027 a 0.44283178,0.44283178 0 0 0 0.835992,0 l 7.446675,-21.49826 a 0.44283178,0.44283178 0 0 0 0.0242,-0.14413 v -10e-4 a 0.44283178,0.44283178 0 0 0 -0.008,-0.083 c 0.002,0.009 -0.002,-0.009 -0.001,-0.006 -0.0127,-0.0679 -0.0241,-0.13645 -0.0357,-0.20755 -0.004,-0.0213 1.6e-4,-0.0196 -0.002,-0.0392 a 0.44283178,0.44283178 0 0 0 0.25484,-0.18911 l 2.57716,-7.44206 7.62655,-2.64173 a 0.44283178,0.44283178 0 0 0 0.21793,-0.16374 c 0.0181,-0.0258 0.0242,-0.0272 0.0404,-0.0473 a 0.44283178,0.44283178 0 0 0 0.25368,0.0346 l 21.47173,-7.43744 a 0.44283178,0.44283178 0 0 0 0,-0.835991 L 102.87742,89.334812 a 0.44283178,0.44283178 0 0 0 -0.20871,-0.0196 c -0.0209,0.003 -0.0239,-0.0013 -0.0438,0.0012 a 0.44283178,0.44283178 0 0 0 0.17065,-0.360919 L 92.677165,59.744153 a 0.44283178,0.44283178 0 0 0 -0.417419,-0.297498 z m 0,1.795365 9.579894,27.661535 c -0.0786,0.04868 -0.18531,0.08072 -0.25022,0.14183 -0.0822,0.07735 -0.15852,0.17019 -0.20641,0.300958 -0.0479,0.130767 -0.0508,0.312445 0.0173,0.456624 0.13611,0.288358 0.38547,0.359822 0.60999,0.39897 0.18264,0.03185 0.40489,0.01583 0.63881,-0.0081 l 28.39721,9.833573 -20.03153,6.93816 c -0.0732,-0.0341 -0.13004,-0.10256 -0.20063,-0.10263 -0.21469,-2.3e-4 -0.34236,0.0897 -0.45432,0.18104 -0.0703,0.0573 -0.13003,0.14031 -0.19257,0.21562 l -7.72687,2.67518 a 0.44283178,0.44283178 0 0 0 -0.27328,0.27444 l -2.495298,7.20221 c -0.140062,0.0361 -0.277911,0.10314 -0.336701,0.1868 -0.07251,0.10319 -0.09944,0.19708 -0.117617,0.29058 -0.03637,0.18701 -0.0281,0.38439 0.01151,0.62613 0.0063,0.0387 0.01393,0.0782 0.02078,0.11762 l -6.990046,20.18142 -9.907371,-28.60476 a 0.44283178,0.44283178 0 0 0 -0.274436,-0.27444 l -28.60477,-9.90622 17.764542,-6.1529 c 0.193341,0.182096 0.38722,0.37283 0.571934,0.475074 0.261592,0.144798 0.549649,0.240113 0.856748,0.119921 0.307098,-0.120191 0.459887,-0.458722 0.472768,-0.743744 0.0066,-0.145832 -0.06409,-0.318572 -0.09917,-0.476228 l 9.037938,-3.129492 a 0.44283178,0.44283178 0 0 0 0.274437,-0.274436 z m 18.223474,46.23785 a 0.44283178,0.44283178 0 0 0 0.075,0.13722 c -0.006,-0.006 -0.0195,-0.006 -0.0242,-0.0127 -0.054,-0.0754 -0.0506,-0.12049 -0.0507,-0.12454 z"
         id="path21"
         inkscape:label="Stroke" />
    </g>
  </g>
</svg>
