<?xml version="1.0" encoding="UTF-8" standalone="no"?>
<!-- Created with Inkscape (http://www.inkscape.org/) -->

<svg
   width="210mm"
   height="297mm"
   viewBox="0 0 210 297"
   version="1.1"
   id="svg1"
   inkscape:export-batch-name=""
   inkscape:export-batch-path="/home/offa47/Games/GameDev/UI/X Button/Ver 2.0"
   inkscape:version="1.4.3 (0d15f75042, 2025-12-25)"
   sodipodi:docname="XButton.svg"
   xmlns:inkscape="http://www.inkscape.org/namespaces/inkscape"
   xmlns:sodipodi="http://sodipodi.sourceforge.net/DTD/sodipodi-0.dtd"
   xmlns:xlink="http://www.w3.org/1999/xlink"
   xmlns="http://www.w3.org/2000/svg"
   xmlns:svg="http://www.w3.org/2000/svg">
  <sodipodi:namedview
     id="namedview1"
     pagecolor="#505050"
     bordercolor="#eeeeee"
     borderopacity="1"
     inkscape:showpageshadow="0"
     inkscape:pageopacity="0"
     inkscape:pagecheckerboard="0"
     inkscape:deskcolor="#505050"
     inkscape:document-units="mm"
     inkscape:zoom="0.54488788"
     inkscape:cx="394.57659"
     inkscape:cy="241.33405"
     inkscape:window-width="1920"
     inkscape:window-height="1093"
     inkscape:window-x="0"
     inkscape:window-y="0"
     inkscape:window-maximized="1"
     inkscape:current-layer="layer1" />
  <defs
     id="defs1">
    <linearGradient
       id="linearGradient13"
       inkscape:collect="always">
      <stop
         style="stop-color:#000000;stop-opacity:0.34850937;"
         offset="0"
         id="stop12" />
      <stop
         style="stop-color:#3d4568;stop-opacity:0.34901962;"
         offset="0.9834938"
         id="stop14" />
      <stop
         style="stop-color:#1e2442;stop-opacity:0.35284212;"
         offset="1"
         id="stop13" />
    </linearGradient>
    <linearGradient
       id="linearGradient3"
       inkscape:collect="always">
      <stop
         style="stop-color:#0c1020;stop-opacity:1;"
         offset="0"
         id="stop4" />
      <stop
         style="stop-color:#1e2442;stop-opacity:1;"
         offset="1"
         id="stop5" />
    </linearGradient>
    <linearGradient
       id="linearGradient2"
       inkscape:collect="always">
      <stop
         style="stop-color:#6a7dff;stop-opacity:1;"
         offset="0"
         id="stop2" />
      <stop
         style="stop-color:#b28cff;stop-opacity:1;"
         offset="0.44775224"
         id="stop11" />
      <stop
         style="stop-color:#8ab8ff;stop-opacity:1;"
         offset="1"
         id="stop3" />
    </linearGradient>
    <radialGradient
       inkscape:collect="always"
       xlink:href="#linearGradient2"
       id="radialGradient3"
       cx="88.756645"
       cy="96.138725"
       fx="88.756645"
       fy="96.138725"
       r="34.517059"
       gradientUnits="userSpaceOnUse" />
    <radialGradient
       inkscape:collect="always"
       xlink:href="#linearGradient3"
       id="radialGradient5"
       cx="87.211563"
       cy="95.79538"
       fx="87.211563"
       fy="95.79538"
       r="78.220352"
       gradientUnits="userSpaceOnUse" />
    <linearGradient
       inkscape:collect="always"
       xlink:href="#linearGradient13"
       id="linearGradient12"
       x1="87.211563"
       y1="173.26573"
       x2="87.211563"
       y2="18.325027"
       gradientUnits="userSpaceOnUse" />
  </defs>
  <g
     inkscape:label="Layer 1"
     inkscape:groupmode="layer"
     id="layer1">
    <g
       id="g14"
       inkscape:label="StarFill">
      <path
         style="baseline-shift:baseline;display:inline;overflow:visible;opacity:1;vector-effect:none;fill:url(#radialGradient5);stroke-linejoin:round;stroke-dashoffset:57.5868;enable-background:accumulate;stop-color:#000000;stop-opacity:1"
         d="m 55.437066,64.020883 c 60.927804,-60.9278073 2.621186,-60.9278068 63.548994,-10e-7 60.92781,60.927808 60.92781,2.621187 0,63.548998 -60.927806,60.9278 -2.62119,60.9278 -63.548994,0 -60.9278069,-60.927809 -60.9278063,-2.62119 0,-63.548997 z"
         id="path8"
         inkscape:label="Fill" />
      <path
         style="opacity:1;baseline-shift:baseline;display:inline;overflow:visible;vector-effect:none;fill:url(#linearGradient12);stroke-linejoin:round;stroke-dashoffset:57.5868;enable-background:accumulate;stop-color:#000000;stop-opacity:1"
         d="m 55.437066,64.020883 c 60.927804,-60.9278073 2.621186,-60.9278068 63.548994,-10e-7 60.92781,60.927808 60.92781,2.621187 0,63.548998 -60.927806,60.9278 -2.62119,60.9278 -63.548994,0 -60.9278069,-60.927809 -60.9278063,-2.62119 0,-63.548997 z"
         id="path12"
         inkscape:label="Fill" />
    </g>
    <path
       style="opacity:1;baseline-shift:baseline;display:inline;overflow:visible;vector-effect:none;stroke-linejoin:round;stroke-dashoffset:57.5868;enable-background:accumulate;stop-color:#000000;stop-opacity:1;fill:#ffffff;fill-opacity:1"
       d="m 87.210937,17.574219 c -0.383671,0 -0.585252,0.239648 -0.669921,0.357422 -0.08467,0.117773 -0.118767,0.203356 -0.154297,0.291015 -0.07106,0.175319 -0.127536,0.361977 -0.199219,0.605469 -0.143366,0.486983 -0.335349,1.182156 -0.644531,2.117187 -0.618364,1.870064 -1.696685,4.681552 -3.703125,8.451172 C 77.826963,36.935725 70.095909,48.300575 54.90625,63.490234 39.716591,78.679893 28.35174,86.410948 20.8125,90.423828 c -3.76962,2.00644 -6.581109,3.084761 -8.451172,3.703125 -0.935032,0.309182 -1.630204,0.501165 -2.117187,0.644531 -0.243492,0.07168 -0.4301502,0.128158 -0.6054691,0.199219 -0.08766,0.03553 -0.1732424,0.06963 -0.2910156,0.154297 -0.1177733,0.08467 -0.3554688,0.286251 -0.3554688,0.669922 0,0.383671 0.2376955,0.587206 0.3554688,0.671875 0.1177732,0.08467 0.2033561,0.118766 0.2910156,0.154297 0.1753189,0.07106 0.3619771,0.125582 0.6054691,0.197265 0.486983,0.143366 1.182155,0.337303 2.117187,0.646485 1.870063,0.618364 4.681552,1.694731 8.451172,3.701176 7.53924,4.01288 18.904091,11.74393 34.09375,26.93359 15.189659,15.18966 22.920713,26.55451 26.933594,34.09375 2.00644,3.76962 3.084761,6.58111 3.703125,8.45117 0.309182,0.93503 0.501165,1.63216 0.644531,2.11914 0.07168,0.24349 0.128158,0.43015 0.199219,0.60547 0.03553,0.0877 0.06963,0.17129 0.154297,0.28906 0.08467,0.11778 0.28625,0.35743 0.669921,0.35742 0.383672,0 0.587206,-0.23964 0.671875,-0.35742 0.08467,-0.11777 0.118767,-0.2014 0.154297,-0.28906 0.07106,-0.17532 0.125583,-0.36198 0.197266,-0.60547 0.143366,-0.48698 0.337302,-1.18411 0.646484,-2.11914 0.618364,-1.87006 1.694732,-4.68155 3.701172,-8.45117 4.012881,-7.53924 11.743939,-18.90409 26.933599,-34.09375 15.18965,-15.18966 26.5545,-22.92071 34.09374,-26.93359 3.76963,-2.006445 6.58111,-3.082812 8.45118,-3.701176 0.93503,-0.309182 1.63215,-0.503119 2.11914,-0.646485 0.24349,-0.07168 0.43015,-0.126204 0.60547,-0.197265 0.0877,-0.03553 0.17129,-0.06963 0.28906,-0.154297 0.11777,-0.08467 0.35742,-0.288204 0.35742,-0.671875 0,-0.383671 -0.23965,-0.585253 -0.35742,-0.669922 -0.11777,-0.08467 -0.2014,-0.118766 -0.28906,-0.154297 -0.17532,-0.07106 -0.36198,-0.127536 -0.60547,-0.199219 -0.48699,-0.143366 -1.18411,-0.335349 -2.11914,-0.644531 -1.87007,-0.618364 -4.68155,-1.696685 -8.45118,-3.703125 -7.53924,-4.01288 -18.90409,-11.743935 -34.09374,-26.933594 -15.18966,-15.189658 -22.920718,-26.554509 -26.933599,-34.09375 -2.00644,-3.76962 -3.082808,-6.581108 -3.701172,-8.451172 -0.309182,-0.935031 -0.503118,-1.630204 -0.646484,-2.117187 -0.07168,-0.243492 -0.126204,-0.43015 -0.197266,-0.605469 -0.03553,-0.08766 -0.06963,-0.173242 -0.154297,-0.291015 -0.08467,-0.117774 -0.288203,-0.357422 -0.671875,-0.357422 z m 0,3.037109 c 0.08934,0.293034 0.127028,0.444607 0.246094,0.804688 0.640804,1.937924 1.753497,4.839191 3.800781,8.685546 4.094569,7.692712 11.923018,19.174975 27.197268,34.449219 15.27424,15.274245 26.75846,23.102698 34.45117,27.197266 3.84636,2.047284 6.74567,3.161931 8.68359,3.802734 0.35904,0.118721 0.51035,0.154985 0.80274,0.244141 -0.29248,0.08918 -0.44355,0.127322 -0.80274,0.246094 -1.93792,0.640803 -4.83723,1.753497 -8.68359,3.800781 -7.69271,4.094563 -19.17693,11.923023 -34.45117,27.197263 -15.27425,15.27425 -23.1027,26.75846 -27.197268,34.45117 -2.047283,3.84636 -3.159977,6.74567 -3.800781,8.6836 -0.119066,0.36008 -0.156757,0.51165 -0.246094,0.80469 -0.08929,-0.29289 -0.125155,-0.44486 -0.24414,-0.80469 -0.640803,-1.93793 -1.75545,-4.83724 -3.802735,-8.6836 -4.094568,-7.69271 -11.92302,-19.17692 -27.197265,-34.45117 -15.274245,-15.27424 -26.756507,-23.1027 -34.449219,-27.197263 -3.846356,-2.047284 -6.747622,-3.159978 -8.685547,-3.800781 -0.359487,-0.11887 -0.51007,-0.15686 -0.802734,-0.246094 0.292568,-0.08921 0.443401,-0.125322 0.802734,-0.244141 1.937925,-0.640803 4.839191,-1.75545 8.685547,-3.802734 7.692711,-4.094568 19.174974,-11.923021 34.449219,-27.197266 15.274244,-15.274244 23.102698,-26.756507 27.197265,-34.449219 2.047284,-3.846355 3.161932,-6.747622 3.802735,-8.685546 0.118985,-0.359837 0.154846,-0.511806 0.24414,-0.804688 z"
       id="path9"
       inkscape:label="StarStrokeStroke" />
    <g
       id="path1"
       style="opacity:1"
       transform="matrix(0.86635732,0,0,0.86635732,10.316593,12.50489)"
       inkscape:label="X">
      <path
         style="baseline-shift:baseline;display:inline;overflow:visible;vector-effect:none;fill:url(#radialGradient3);stroke-linejoin:round;stroke-dashoffset:57.5868;enable-background:accumulate;stop-color:#000000;stop-opacity:1"
         d="m 112.963,120.86011 c -26.347398,25.7985 12.53387,-11.74655 -24.338847,-12.13469 -36.872715,-0.38813 1.209599,37.96706 -24.588894,11.61966 C 38.236764,93.997682 75.781812,132.87895 76.169946,96.006233 76.55808,59.133518 38.202888,97.215832 64.550288,71.417339 90.897689,45.618844 52.016421,83.163892 88.889137,83.552026 125.76185,83.94016 87.679538,45.584968 113.47803,71.932368 139.27653,98.279769 101.73148,59.398501 101.34334,96.271217 100.95521,133.14393 139.3104,95.061618 112.963,120.86011 Z"
         id="path6"
         inkscape:label="X Fill" />
      <g
         id="g15"
         inkscape:label="X Stroke">
        <path
           style="baseline-shift:baseline;display:inline;overflow:visible;opacity:1;vector-effect:none;stroke-width:1.08488;stroke-linejoin:round;stroke-dashoffset:57.5868;enable-background:accumulate;stop-color:#000000;stop-opacity:1;fill:#ffffff;fill-opacity:1"
           d="m 72.838472,58.169759 c -0.367717,0.05896 -0.671499,0.190485 -0.915372,0.353859 -0.243873,0.163374 -0.428667,0.340268 -0.661103,0.529729 -0.513568,0.418617 -1.153669,1.00111 -1.993902,1.792606 -1.681181,1.583664 -4.149094,4.005265 -7.721343,7.503093 -3.57226,3.497839 -6.047567,5.914972 -7.66625,7.562424 -0.809046,0.823425 -1.403618,1.451223 -1.832864,1.955761 -0.194217,0.228284 -0.373522,0.409899 -0.542444,0.650509 -0.168924,0.24061 -0.308266,0.542117 -0.375048,0.909016 -0.04058,0.222903 -0.04874,0.551138 0.101708,0.894185 0.167221,0.381232 0.44019,0.61329 0.745859,0.752215 0.459145,0.208682 0.889536,0.14168 1.050984,0.11866 0.469079,-0.06688 0.909734,-0.216119 1.440866,-0.396237 1.072762,-0.363796 2.500944,-0.897418 4.121297,-1.33492 3.239051,-0.874556 7.092685,-1.285297 9.963159,0.565751 2.875609,1.854362 5.294184,6.184156 5.191352,15.953343 -0.102837,9.769217 -2.610178,14.049847 -5.524023,15.843157 -2.908729,1.79018 -6.753692,1.29647 -9.973753,0.35387 -1.610928,-0.47156 -3.02913,-1.03559 -4.093752,-1.4218 -0.526309,-0.19093 -0.963487,-0.35107 -1.432389,-0.42802 -0.162889,-0.0268 -0.590224,-0.0992 -1.053104,0.0996 -0.310696,0.13339 -0.587653,0.35985 -0.76281,0.73739 -0.158382,0.34137 -0.15391,0.67011 -0.11866,0.88994 0.05905,0.36823 0.192156,0.6754 0.355978,0.91961 0.163823,0.24422 0.340325,0.42874 0.529731,0.66112 0.418029,0.51283 0.998659,1.15331 1.790486,1.9939 1.583986,1.68151 4.007536,4.14712 7.505213,7.71921 3.497686,3.57211 5.912518,6.04936 7.560304,7.66837 0.823765,0.80938 1.451922,1.4021 1.955761,1.83075 0.228284,0.19422 0.409899,0.37351 0.65051,0.54245 0.24061,0.16892 0.542116,0.30826 0.909015,0.37504 0.217974,0.0396 0.548515,0.052 0.894184,-0.0996 0.381135,-0.16724 0.613281,-0.44017 0.752217,-0.74586 0.208266,-0.45822 0.144403,-0.88741 0.120778,-1.05311 -0.06719,-0.47119 -0.218797,-0.90927 -0.398357,-1.43875 -0.363725,-1.07256 -0.897385,-2.50295 -1.33492,-4.12341 -0.874557,-3.23905 -1.285296,-7.09269 0.565753,-9.96316 1.854265,-2.87546 6.186275,-5.29419 15.955461,-5.19135 9.769151,0.10284 14.047576,2.61206 15.841046,5.52614 1.79027,2.90887 1.2985,6.75389 0.35598,9.97376 -0.47156,1.61093 -1.03559,3.02911 -1.4218,4.09375 -0.19077,0.52586 -0.35102,0.96106 -0.42802,1.43027 -0.0268,0.16288 -0.0992,0.59022 0.0996,1.0531 0.13192,0.30729 0.35652,0.58709 0.73527,0.7628 0.34248,0.15885 0.67134,0.15404 0.89207,0.11867 0.36774,-0.0589 0.67361,-0.19048 0.9175,-0.35386 0.24386,-0.16339 0.42866,-0.34027 0.66109,-0.52973 0.51357,-0.41862 1.15367,-1.00112 1.9939,-1.79261 1.68117,-1.58367 4.1491,-4.00526 7.72134,-7.50308 3.57226,-3.49785 6.04756,-5.91497 7.66626,-7.56244 0.80904,-0.82341 1.40362,-1.45122 1.83287,-1.95576 0.1945,-0.22863 0.37407,-0.40975 0.54244,-0.6505 0.16836,-0.24077 0.30626,-0.54273 0.37293,-0.90902 0.0396,-0.21798 0.0518,-0.54851 -0.0996,-0.89419 -0.16723,-0.38113 -0.44015,-0.61328 -0.74585,-0.75221 -0.45914,-0.20868 -0.88948,-0.14171 -1.05099,-0.11865 -0.4692,0.0668 -0.90977,0.21611 -1.44086,0.39623 -1.07276,0.36378 -2.50094,0.89741 -4.1213,1.33492 -3.23905,0.87455 -7.09268,1.28529 -9.96316,-0.56576 -2.87562,-1.85436 -5.29419,-6.18415 -5.19136,-15.953339 0.10286,-9.769229 2.61018,-14.04984 5.52403,-15.843159 2.90873,-1.790168 6.7537,-1.296446 9.97376,-0.353859 1.61093,0.471557 3.02913,1.035588 4.09375,1.421795 0.52631,0.190928 0.96349,0.351064 1.43239,0.428021 0.16283,0.02673 0.59022,0.09914 1.0531,-0.09959 0.31213,-0.134012 0.58674,-0.362459 0.76069,-0.737384 0.1571,-0.338727 0.1568,-0.66522 0.12078,-0.889945 -0.059,-0.368252 -0.19215,-0.675392 -0.35598,-0.919611 -0.16384,-0.24422 -0.34032,-0.42874 -0.52974,-0.661103 -0.41801,-0.512847 -0.99865,-1.153317 -1.79048,-1.993903 -1.58397,-1.681525 -4.00752,-4.147127 -7.50521,-7.719223 -3.49767,-3.572106 -5.91251,-6.049355 -7.56031,-7.668369 -0.82375,-0.80938 -1.45191,-1.402094 -1.95575,-1.830747 -0.22829,-0.194216 -0.40991,-0.373519 -0.65052,-0.542443 -0.2406,-0.168922 -0.54211,-0.308266 -0.909,-0.375048 -0.21802,-0.03968 -0.54846,-0.05207 -0.8942,0.09959 -0.38006,0.16671 -0.61389,0.436829 -0.75433,0.74586 -0.20902,0.4599 -0.14178,0.891068 -0.11866,1.053103 0.0672,0.471116 0.21878,0.909236 0.39835,1.438746 0.36374,1.072552 0.8974,2.502949 1.33493,4.123417 0.87456,3.239051 1.2853,7.092687 -0.56575,9.963159 -1.85427,2.875461 -6.186278,5.294186 -15.955465,5.191351 -9.76917,-0.102884 -14.047584,-2.612051 -15.841052,-5.526141 -1.79026,-2.908878 -1.298505,-6.753896 -0.355979,-9.973753 0.471559,-1.61093 1.035589,-3.029134 1.421796,-4.093753 0.190768,-0.525871 0.351014,-0.961073 0.428021,-1.43027 0.02673,-0.162827 0.09914,-0.590223 -0.09959,-1.053102 -0.131912,-0.307243 -0.356514,-0.587089 -0.735261,-0.762811 -0.342581,-0.158942 -0.673564,-0.154037 -0.894185,-0.118659 z m 0.173753,1.072172 c 0.07992,-0.01282 0.167916,-0.01433 0.262745,0.02966 0.05867,0.02722 0.179674,0.167161 0.197061,0.207654 0.09985,0.23259 0.06226,0.214014 0.0233,0.45133 -0.05434,0.331087 -0.186986,0.711075 -0.377167,1.23533 -0.375693,1.035631 -0.954183,2.487483 -1.442984,4.15732 -0.978187,3.341676 -1.580601,7.507323 0.474638,10.846747 2.052031,3.334213 6.799088,5.938337 16.752175,6.043158 9.953041,0.104767 14.757407,-2.39667 16.879317,-5.687179 2.12513,-3.295498 1.60897,-7.474694 0.70135,-10.836153 -0.45355,-1.679787 -1.0023,-3.143712 -1.3561,-4.186985 -0.17919,-0.528402 -0.3044,-0.912051 -0.35174,-1.243806 -0.0342,-0.239399 -0.0702,-0.222197 0.0338,-0.451329 0.0161,-0.03548 0.1419,-0.176431 0.20341,-0.203416 0.0959,-0.04205 0.18132,-0.03813 0.26275,-0.02331 0.232,0.04223 0.33998,0.09594 0.481,0.19494 0.14101,0.099 0.31314,0.262478 0.56999,0.480995 0.46641,0.396814 1.08502,0.978472 1.90067,1.779892 1.63108,1.602592 4.04489,4.078525 7.54335,7.651418 3.49847,3.572904 5.92463,6.037845 7.4925,7.702272 0.78411,0.832388 1.3528,1.464239 1.73964,1.93881 0.21302,0.261348 0.37222,0.437394 0.46827,0.580584 0.096,0.143191 0.14702,0.252423 0.18435,0.485233 0.0122,0.0758 0.014,0.161941 -0.0318,0.260626 -0.0289,0.06248 -0.16992,0.18389 -0.20552,0.199179 -0.23258,0.09985 -0.21402,0.06438 -0.45134,0.02543 -0.33137,-0.05438 -0.71362,-0.189263 -1.23745,-0.379287 -1.03562,-0.375692 -2.48748,-0.954184 -4.15731,-1.442984 -3.34147,-0.978126 -7.50718,-1.582813 -10.84675,0.47252 -3.33447,2.052183 -5.93625,6.801295 -6.04104,16.754293 -0.1048,9.953037 2.39682,14.755357 5.68718,16.877197 3.2955,2.12513 7.47469,1.60896 10.83615,0.70135 1.6799,-0.45357 3.14181,-1.00239 4.18487,-1.3561 0.52682,-0.17866 0.91223,-0.3021 1.24591,-0.34963 0.23992,-0.0342 0.21931,-0.0707 0.44921,0.0339 0.0388,0.0176 0.17689,0.14085 0.20342,0.20129 0.042,0.0959 0.038,0.18128 0.0233,0.26275 -0.0423,0.2326 -0.0944,0.34226 -0.19283,0.48311 -0.0985,0.14086 -0.26277,0.31138 -0.48099,0.56788 -0.39622,0.46572 -0.98026,1.08468 -1.78201,1.90066 -1.60291,1.63142 -4.07656,4.04718 -7.6493,7.54548 -3.57275,3.49832 -6.03961,5.92216 -7.70439,7.49038 -0.83273,0.78444 -1.46495,1.35552 -1.9388,1.74176 -0.2613,0.21297 -0.43601,0.37283 -0.57846,0.46827 -0.14248,0.0955 -0.25191,0.14484 -0.48525,0.18223 -0.0798,0.0128 -0.16782,0.0143 -0.26275,-0.0297 -0.0587,-0.0272 -0.17969,-0.1672 -0.19705,-0.20765 -0.0998,-0.23258 -0.0623,-0.21408 -0.0233,-0.45134 0.0543,-0.33107 0.18698,-0.71106 0.37717,-1.23532 0.37569,-1.03564 0.95419,-2.48748 1.44298,-4.15732 0.9782,-3.34168 1.58061,-7.50733 -0.47464,-10.84675 -2.05202,-3.3342 -6.799099,-5.93837 -16.752177,-6.04316 -9.95304,-0.1048 -14.757399,2.39667 -16.879311,5.68719 -2.125128,3.29549 -1.608972,7.47468 -0.701361,10.83615 0.453549,1.67978 1.002314,3.1437 1.356107,4.18697 0.1792,0.52842 0.304449,0.91215 0.35174,1.24382 0.03361,0.23575 0.06888,0.22053 -0.03602,0.45132 -0.01764,0.0388 -0.14084,0.1769 -0.201297,0.20342 -0.09592,0.042 -0.181268,0.0382 -0.262745,0.0233 -0.232001,-0.0422 -0.339985,-0.0959 -0.480994,-0.19494 -0.141011,-0.099 -0.313145,-0.26248 -0.569991,-0.481 -0.466416,-0.39682 -1.085004,-0.97847 -1.90067,-1.77988 -1.631073,-1.60261 -4.044896,-4.07854 -7.543352,-7.65143 -3.498467,-3.5729 -5.924615,-6.03784 -7.492499,-7.70227 -0.784107,-0.83239 -1.352801,-1.46424 -1.739633,-1.93881 -0.213022,-0.26134 -0.372222,-0.43738 -0.46828,-0.58058 -0.09606,-0.1432 -0.147013,-0.25241 -0.184346,-0.48524 -0.01294,-0.0808 -0.0149,-0.16459 0.02966,-0.26062 0.02779,-0.0599 0.170617,-0.18328 0.207656,-0.19918 0.232591,-0.0998 0.214075,-0.0623 0.451328,-0.0233 0.331385,0.0543 0.713635,0.18714 1.237449,0.37715 1.035629,0.3757 2.487481,0.9542 4.15732,1.44299 3.34147,0.97813 7.507171,1.58281 10.846748,-0.47251 3.334458,-2.05219 5.936269,-6.8013 6.041039,-16.754297 0.104768,-9.953041 -2.396818,-14.755375 -5.68718,-16.877192 -3.295497,-2.12513 -7.474692,-1.608971 -10.836153,-0.701363 -1.6799,0.45358 -3.141802,1.002385 -4.184865,1.356108 -0.526781,0.178643 -0.912132,0.302029 -1.245925,0.349622 -0.239987,0.03422 -0.219325,0.07058 -0.449211,-0.03391 -0.03885,-0.01766 -0.176941,-0.140943 -0.203416,-0.201297 -0.04323,-0.09854 -0.03936,-0.186199 -0.02543,-0.262747 0.04222,-0.231999 0.09595,-0.339984 0.194939,-0.480994 0.099,-0.14101 0.262479,-0.313144 0.480996,-0.56999 0.396219,-0.465718 0.980255,-1.084665 1.782011,-1.900671 1.602921,-1.631409 4.07656,-4.047165 7.649298,-7.54547 3.572747,-3.498316 6.039619,-5.922175 7.70439,-7.49038 0.832742,-0.784439 1.46496,-1.355508 1.938812,-1.741751 0.261274,-0.212969 0.435987,-0.372835 0.578465,-0.468282 0.142477,-0.09545 0.251888,-0.14481 0.485232,-0.182227 z m -1.485363,1.758703 c -0.34711,0.307668 -0.639054,0.553935 -1.144217,1.029795 -1.656008,1.559951 -4.12482,3.983134 -7.698033,7.481904 -3.573189,3.498748 -6.050541,5.916257 -7.645061,7.539115 -0.487074,0.495731 -0.738326,0.782579 -1.053103,1.123027 a 0.54227382,0.54227382 0 0 0 0.576346,0.88147 c 0.991049,-0.345149 2.141916,-0.772678 3.604282,-1.167525 3.420222,-0.923473 7.765314,-1.489834 11.268414,0.769169 3.498857,2.256267 6.042962,7.292964 5.937211,17.339116 -0.105755,10.046165 -2.754022,15.029885 -6.299548,17.211985 -3.549802,2.18471 -7.883092,1.52503 -11.283244,0.52973 -1.45469,-0.42582 -2.597504,-0.87581 -3.580975,-1.24169 a 0.54227382,0.54227382 0 0 0 -0.595416,0.86876 c 0.308202,0.34779 0.557041,0.63997 1.034033,1.14633 1.559953,1.65601 3.983134,4.12482 7.481905,7.69803 3.498746,3.5732 5.916254,6.05055 7.539114,7.64507 0.496479,0.48779 0.785419,0.73901 1.125146,1.0531 a 0.54227382,0.54227382 0 0 0 0.881471,-0.57635 c -0.345149,-0.99104 -0.772681,-2.14192 -1.167525,-3.60428 -0.923474,-3.42021 -1.489834,-7.76532 0.769168,-11.26841 2.256268,-3.49885 7.292964,-6.04297 17.339115,-5.93721 10.046168,0.10577 15.027695,2.75389 17.209855,6.29954 2.18475,3.54985 1.52709,7.88547 0.53186,11.28536 -0.42534,1.45303 -0.87388,2.59389 -1.23957,3.57674 a 0.54227382,0.54227382 0 0 0 0.86875,0.5933 c 0.34711,-0.30766 0.63906,-0.55393 1.14422,-1.02979 1.65618,-1.56011 4.12278,-3.98321 7.69591,-7.48191 3.57319,-3.49874 6.05055,-5.91625 7.64506,-7.53912 0.4858,-0.49442 0.73786,-0.78001 1.05311,-1.1209 a 0.54227382,0.54227382 0 0 0 -0.57635,-0.88147 c -0.99036,0.34492 -2.1405,0.77075 -3.60215,1.16541 -3.42016,0.92345 -7.76752,1.48977 -11.27054,-0.76918 -3.49877,-2.25621 -6.04085,-7.29288 -5.93509,-17.33911 0.10577,-10.046168 2.75403,-15.0299 6.29954,-17.211981 3.54981,-2.184715 7.88308,-1.525033 11.28325,-0.529729 1.45377,0.425551 2.59534,0.875769 3.57885,1.241686 a 0.54227382,0.54227382 0 0 0 0.59542,-0.868756 c -0.30714,-0.346538 -0.55506,-0.640122 -1.0319,-1.146337 -1.56013,-1.656188 -3.98535,-4.124898 -7.48404,-7.698033 -3.49867,-3.57311 -5.91396,-6.050375 -7.537,-7.645061 -0.49648,-0.487813 -0.78541,-0.739004 -1.12514,-1.053102 a 0.54227382,0.54227382 0 0 0 -0.88147,0.576345 c 0.34515,0.991046 0.77267,2.141914 1.16753,3.604281 0.92347,3.420225 1.48983,7.765317 -0.76917,11.268414 -2.25628,3.498858 -7.292966,6.042962 -17.339117,5.937211 -10.046168,-0.105744 -15.027702,-2.753897 -17.209864,-6.299547 -2.184744,-3.549849 -1.527078,-7.885463 -0.531848,-11.285363 0.425338,-1.453034 0.87388,-2.593883 1.239568,-3.576736 a 0.54227382,0.54227382 0 0 0 -0.868757,-0.593298 z m -0.856044,2.258768 c -0.192179,0.545634 -0.363493,0.944145 -0.557275,1.606141 -1.028275,3.512787 -1.789107,8.194388 0.650509,12.158359 2.442201,3.968173 7.886674,6.708834 18.120996,6.816563 10.234335,0.107729 15.737722,-2.517083 18.262962,-6.433038 2.52251,-3.911716 1.85885,-8.60788 0.90478,-12.141408 -0.18001,-0.66671 -0.34223,-1.068823 -0.52337,-1.618855 1.60217,1.585458 3.78386,3.815498 7.07718,7.178899 3.29337,3.363444 5.47904,5.594326 7.03058,7.229752 -0.5464,-0.19278 -0.94508,-0.365267 -1.60826,-0.559394 -3.51253,-1.028201 -8.19222,-1.791257 -12.15624,0.648389 -3.96829,2.442278 -6.70883,7.888794 -6.81656,18.123116 -0.10774,10.234264 2.51489,15.737684 6.43092,18.262974 3.9118,2.52253 8.60995,1.85885 12.14353,0.90477 0.66394,-0.17927 1.06429,-0.3411 1.6125,-0.52126 -1.58561,1.60244 -3.81331,3.78374 -7.17466,7.07508 -3.36239,3.29232 -5.59035,5.475 -7.22552,7.02634 0.19197,-0.54512 0.36372,-0.94282 0.55728,-1.60403 1.02828,-3.51278 1.7891,-8.19439 -0.65051,-12.15836 -2.44221,-3.96817 -7.886677,-6.70883 -18.121,-6.81656 -10.234339,-0.10773 -15.737729,2.51709 -18.262966,6.43304 -2.522501,3.91171 -1.858846,8.60788 -0.904778,12.1414 0.180015,0.66672 0.342222,1.06883 0.523373,1.61886 -1.602516,-1.58559 -3.786022,-3.81555 -7.07931,-7.17891 -3.292773,-3.36283 -5.476993,-5.59207 -7.028454,-7.22762 0.546355,0.19258 0.94542,0.36325 1.60826,0.55728 3.512534,1.0282 8.192219,1.79124 12.156239,-0.64839 3.968297,-2.44229 6.708833,-7.88879 6.816564,-18.123122 0.107729,-10.234336 -2.517084,-15.737728 -6.43304,-18.262965 -3.911715,-2.522503 -8.607877,-1.858845 -12.141407,-0.904779 -0.665921,0.179803 -1.067229,0.342425 -1.616735,0.523374 1.585594,-1.602474 3.814421,-3.784883 7.176779,-7.077191 3.362833,-3.292774 5.592089,-5.476993 7.227633,-7.028455 z"
           id="path11"
           inkscape:label="Stroke2" />
        <path
           style="opacity:1;baseline-shift:baseline;display:inline;overflow:visible;vector-effect:none;stroke-linejoin:round;stroke-dashoffset:57.5868;enable-background:accumulate;stop-color:#000000;stop-opacity:1;fill:#ffffff;fill-opacity:1"
           d="m 74.164062,61.634766 c -0.554031,0.08884 -0.761717,0.336089 -1.216796,0.707031 -0.45508,0.370942 -1.041463,0.902593 -1.8125,1.628906 -1.542074,1.452626 -3.816406,3.68579 -7.109375,6.910156 -3.29297,3.224366 -5.573829,5.451737 -7.058594,6.962891 -0.742383,0.755577 -1.285577,1.330174 -1.666016,1.777344 -0.380439,0.44717 -0.633894,0.651086 -0.734375,1.203125 -0.02512,0.138009 -0.03067,0.329685 0.05859,0.533203 0.08927,0.203518 0.27872,0.367288 0.4375,0.439453 0.317559,0.14433 0.506393,0.09669 0.691406,0.07031 0.370026,-0.05276 0.750713,-0.178405 1.238281,-0.34375 0.975137,-0.330688 2.307112,-0.829554 3.828125,-1.240234 3.042028,-0.82136 6.74418,-1.248547 9.585938,0.583984 2.841758,1.832532 5.109351,6.041326 5.013672,15.13086 -0.09568,9.089535 -2.450375,13.251135 -5.330078,15.023435 -2.879704,1.77231 -6.57164,1.26608 -9.595703,0.38086 -1.512032,-0.4426 -2.834776,-0.96917 -3.802735,-1.32031 -0.483979,-0.17557 -0.861635,-0.31056 -1.230469,-0.37109 -0.184416,-0.0303 -0.372832,-0.081 -0.693359,0.0566 -0.160263,0.0688 -0.353734,0.23004 -0.447266,0.43164 -0.09353,0.20159 -0.09057,0.39274 -0.06836,0.53125 0.08884,0.55403 0.338043,0.76367 0.708984,1.21875 0.370942,0.45508 0.900641,1.04146 1.626954,1.8125 1.452626,1.54207 3.687743,3.81445 6.912109,7.10742 3.224366,3.29297 5.449784,5.57578 6.960937,7.06055 0.755577,0.74238 1.330174,1.28362 1.777344,1.66406 0.44717,0.38044 0.651086,0.63389 1.203125,0.73437 0.13801,0.0251 0.329685,0.0326 0.533203,-0.0566 0.203519,-0.0893 0.367289,-0.27872 0.439453,-0.4375 0.14433,-0.31755 0.09865,-0.50834 0.07227,-0.69336 -0.05276,-0.37002 -0.180359,-0.74876 -0.345703,-1.23632 -0.330688,-0.97514 -0.829554,-2.30907 -1.240234,-3.83008 -0.821361,-3.04203 -1.248547,-6.74418 0.583984,-9.58594 1.832531,-2.84176 6.043279,-5.10935 15.132812,-5.01367 9.089534,0.0957 13.249184,2.45233 15.021484,5.33203 1.77231,2.8797 1.26803,6.57164 0.38281,9.5957 -0.4426,1.51204 -0.96917,2.83478 -1.32031,3.80274 -0.17557,0.48398 -0.31056,0.85968 -0.37109,1.22851 -0.0303,0.18442 -0.081,0.37284 0.0566,0.69336 0.0688,0.16027 0.22809,0.35374 0.42969,0.44727 0.20159,0.0935 0.39469,0.0906 0.5332,0.0684 0.55403,-0.0888 0.76172,-0.33609 1.2168,-0.70703 0.45508,-0.37094 1.04146,-0.9026 1.8125,-1.62891 1.54207,-1.45263 3.8164,-3.68579 7.10937,-6.91016 3.29297,-3.22436 5.57383,-5.45173 7.0586,-6.96289 0.74238,-0.75557 1.28557,-1.33017 1.66601,-1.77734 0.38044,-0.44717 0.63194,-0.65109 0.73242,-1.20312 0.0251,-0.13801 0.0326,-0.32969 -0.0566,-0.53321 -0.0893,-0.20352 -0.27872,-0.36729 -0.4375,-0.43945 -0.31756,-0.14433 -0.50639,-0.0967 -0.6914,-0.0703 -0.37003,0.0527 -0.75072,0.1784 -1.23829,0.34375 -0.97513,0.33068 -2.30711,0.82955 -3.82812,1.24023 -3.04203,0.82136 -6.74418,1.24855 -9.58594,-0.58398 -2.84176,-1.83254 -5.10935,-6.04133 -5.01367,-15.130865 0.0957,-9.089534 2.45037,-13.251132 5.33008,-15.023438 2.8797,-1.772305 6.57164,-1.266073 9.5957,-0.380859 1.51203,0.442607 2.83478,0.96917 3.80274,1.320312 0.48398,0.175572 0.86163,0.310559 1.23046,0.371094 0.18442,0.03027 0.37284,0.08097 0.69336,-0.05664 0.16027,-0.06881 0.35179,-0.230047 0.44532,-0.431641 0.0935,-0.201594 0.0925,-0.392742 0.0703,-0.53125 -0.0888,-0.554032 -0.33804,-0.763671 -0.70899,-1.21875 -0.37094,-0.455079 -0.90064,-1.041463 -1.62695,-1.8125 -1.45262,-1.542074 -3.68774,-3.814452 -6.91211,-7.107422 -3.22436,-3.29297 -5.44978,-5.575781 -6.96094,-7.060547 -0.75557,-0.742382 -1.33017,-1.283623 -1.77734,-1.664062 -0.44717,-0.380439 -0.65109,-0.633895 -1.20312,-0.734375 -0.13801,-0.02512 -0.32969,-0.03263 -0.53321,0.05664 -0.20352,0.08927 -0.36924,0.278721 -0.4414,0.4375 -0.14433,0.31756 -0.0967,0.508347 -0.0703,0.69336 0.0528,0.370025 0.18036,0.74876 0.34571,1.236328 0.33069,0.975136 0.82955,2.309064 1.24023,3.830078 0.82136,3.042028 1.24855,6.74418 -0.58398,9.585937 -1.83253,2.841758 -6.043283,5.109352 -15.132817,5.013672 C 79.806951,82.707055 75.647305,80.350406 73.875,77.470703 72.102695,74.591 72.606973,70.899064 73.492187,67.875 c 0.442608,-1.512032 0.969171,-2.834776 1.320313,-3.802734 0.175571,-0.48398 0.310559,-0.859683 0.371094,-1.228516 0.03027,-0.184417 0.08097,-0.372832 -0.05664,-0.693359 -0.06881,-0.160264 -0.228093,-0.353735 -0.429687,-0.447266 -0.201594,-0.09353 -0.394696,-0.09057 -0.533204,-0.06836 z m -0.957031,2.488281 c -0.334416,0.898806 -0.755395,1.967353 -1.154297,3.330078 -0.932588,3.185903 -1.586342,7.341735 0.544922,10.804687 2.131265,3.462953 6.936379,5.946535 16.283203,6.044922 9.346824,0.09839 14.204511,-2.28385 16.408201,-5.701172 2.20369,-3.417321 1.6368,-7.584233 0.77149,-10.789062 -0.37039,-1.371779 -0.77046,-2.449617 -1.08594,-3.355469 0.31933,0.295239 0.57777,0.519212 1.02734,0.960938 1.48825,1.462258 3.7142,3.745182 6.93946,7.039062 3.22525,3.293881 5.46197,5.569193 6.89257,7.087891 0.432,0.458601 0.65106,0.721476 0.93946,1.046875 -0.89901,-0.334477 -1.96835,-0.757068 -3.33203,-1.15625 -3.18591,-0.932588 -7.33979,-1.588296 -10.80274,0.542969 -3.46295,2.131264 -5.94653,6.938331 -6.04492,16.285156 -0.0984,9.346828 2.2819,14.204518 5.69922,16.408208 3.41732,2.20368 7.58619,1.6368 10.79101,0.77148 1.37083,-0.37013 2.44787,-0.76856 3.35352,-1.08398 -0.29494,0.31894 -0.52009,0.57475 -0.96094,1.02343 -1.46226,1.48825 -3.74518,3.71615 -7.03906,6.94141 -3.29388,3.22526 -5.56724,5.46002 -7.08594,6.89062 -0.45812,0.43156 -0.71972,0.65121 -1.04492,0.93946 0.33442,-0.89881 0.7554,-1.96736 1.1543,-3.33008 0.93259,-3.1859 1.58634,-7.34174 -0.54492,-10.80469 -2.13127,-3.46295 -6.936383,-5.94653 -16.283208,-6.04492 -9.346824,-0.0984 -14.204514,2.28385 -16.408203,5.70117 -2.203688,3.41732 -1.636801,7.58424 -0.771484,10.78906 0.370386,1.37178 0.77046,2.44962 1.085937,3.35547 -0.319329,-0.29524 -0.577767,-0.51921 -1.027343,-0.96093 -1.488247,-1.46226 -3.716149,-3.74519 -6.941407,-7.03907 -3.225257,-3.29388 -5.460018,-5.56919 -6.890625,-7.08789 -0.43267,-0.45931 -0.652782,-0.72117 -0.941406,-1.04687 0.899164,0.33452 1.969586,0.75686 3.333985,1.15625 3.185903,0.93259 7.339781,1.58829 10.802734,-0.54297 3.462953,-2.13127 5.946534,-6.93833 6.044922,-16.285158 0.09839,-9.346824 -2.28385,-14.204515 -5.701172,-16.408203 -3.417322,-2.203689 -7.584234,-1.636802 -10.789063,-0.771485 -1.371779,0.370386 -2.449616,0.77046 -3.355468,1.085938 0.295178,-0.319252 0.519389,-0.575995 0.960937,-1.025391 1.462258,-1.488246 3.745182,-3.716148 7.039063,-6.941406 3.29388,-3.225258 5.569192,-5.460019 7.08789,-6.890625 0.458128,-0.431554 0.719726,-0.65121 1.044922,-0.939453 z"
           id="path10"
           inkscape:label="Stroke" />
      </g>
    </g>
  </g>
</svg>
