<?xml version="1.0" encoding="UTF-8" standalone="no"?>
<!-- Created with Inkscape (http://www.inkscape.org/) -->

<svg
   width="210mm"
   height="297mm"
   viewBox="0 0 210 297"
   version="1.1"
   id="svg1"
   inkscape:export-filename="XpIcon.png"
   inkscape:export-xdpi="400"
   inkscape:export-ydpi="400"
   inkscape:version="1.4.3 (0d15f75042, 2025-12-25)"
   sodipodi:docname="Xp ICon.svg"
   xmlns:inkscape="http://www.inkscape.org/namespaces/inkscape"
   xmlns:sodipodi="http://sodipodi.sourceforge.net/DTD/sodipodi-0.dtd"
   xmlns:xlink="http://www.w3.org/1999/xlink"
   xmlns="http://www.w3.org/2000/svg"
   xmlns:svg="http://www.w3.org/2000/svg">
  <sodipodi:namedview
     id="namedview1"
     pagecolor="#505050"
     bordercolor="#eeeeee"
     borderopacity="1"
     inkscape:showpageshadow="0"
     inkscape:pageopacity="0"
     inkscape:pagecheckerboard="0"
     inkscape:deskcolor="#505050"
     inkscape:document-units="mm"
     inkscape:zoom="0.77058782"
     inkscape:cx="168.05353"
     inkscape:cy="504.16058"
     inkscape:window-width="1920"
     inkscape:window-height="1093"
     inkscape:window-x="0"
     inkscape:window-y="0"
     inkscape:window-maximized="1"
     inkscape:current-layer="layer1" />
  <defs
     id="defs1">
    <linearGradient
       id="linearGradient20"
       inkscape:collect="always">
      <stop
         style="stop-color:#0c1020;stop-opacity:1;"
         offset="0"
         id="stop20" />
      <stop
         style="stop-color:#1e2442;stop-opacity:0.72941178;"
         offset="1"
         id="stop21" />
    </linearGradient>
    <linearGradient
       id="linearGradient13"
       inkscape:collect="always">
      <stop
         style="stop-color:#8ab8ff;stop-opacity:1;"
         offset="0"
         id="stop13" />
      <stop
         style="stop-color:#b28cff;stop-opacity:1;"
         offset="0.34999999"
         id="stop15" />
      <stop
         style="stop-color:#6a7dff;stop-opacity:1;"
         offset="0.69999999"
         id="stop16" />
      <stop
         style="stop-color:#8ab8ff;stop-opacity:1;"
         offset="1"
         id="stop14" />
    </linearGradient>
    <linearGradient
       id="linearGradient1"
       inkscape:collect="always">
      <stop
         style="stop-color:#ff9ad5;stop-opacity:1;"
         offset="0"
         id="stop1" />
      <stop
         style="stop-color:#b28cff;stop-opacity:1;"
         offset="1"
         id="stop2" />
    </linearGradient>
    <linearGradient
       inkscape:collect="always"
       xlink:href="#linearGradient1"
       id="linearGradient2"
       x1="100.99934"
       y1="78.221466"
       x2="100.99934"
       y2="132.03206"
       gradientUnits="userSpaceOnUse" />
    <linearGradient
       inkscape:collect="always"
       xlink:href="#linearGradient13"
       id="linearGradient14"
       x1="55.938931"
       y1="105.12696"
       x2="146.05912"
       y2="105.12696"
       gradientUnits="userSpaceOnUse" />
    <linearGradient
       inkscape:collect="always"
       xlink:href="#linearGradient13"
       id="linearGradient19"
       x1="44.816608"
       y1="105.12695"
       x2="157.18144"
       y2="105.12695"
       gradientUnits="userSpaceOnUse" />
    <linearGradient
       inkscape:collect="always"
       xlink:href="#linearGradient20"
       id="linearGradient21"
       x1="100.99937"
       y1="54.997269"
       x2="100.99937"
       y2="155.25623"
       gradientUnits="userSpaceOnUse" />
  </defs>
  <g
     inkscape:label="Layer 1"
     inkscape:groupmode="layer"
     id="layer1">
    <g
       id="g21"
       inkscape:label="XpIcon"
       inkscape:export-filename="XPIcon.png"
       inkscape:export-xdpi="1200"
       inkscape:export-ydpi="1200">
      <path
         style="opacity:1;baseline-shift:baseline;display:inline;overflow:visible;vector-effect:none;fill:url(#linearGradient21);stroke-dashoffset:10;enable-background:accumulate;stop-color:#000000;stop-opacity:1"
         d="m 100.99937,155.25623 c -3.970054,0 -50.129482,-46.15943 -50.129482,-50.12948 0,-3.97005 46.159425,-50.129481 50.129482,-50.129481 3.97005,0 50.12948,46.159421 50.12948,50.129481 0,3.97005 -46.15943,50.12948 -50.12948,50.12948 z"
         id="path7"
         inkscape:label="Fil" />
      <path
         style="opacity:1;baseline-shift:baseline;display:inline;overflow:visible;vector-effect:none;stroke-width:1.10967;stroke-dashoffset:10;enable-background:accumulate;stop-color:#000000;stop-opacity:1;fill:url(#linearGradient19)"
         d="m 101.00011,48.945622 c -0.54414,0 -0.99394,0.262437 -1.640666,0.656698 -0.646727,0.394261 -1.433,0.956809 -2.353712,1.668839 -1.841423,1.424057 -4.210133,3.44792 -6.926763,5.888614 -5.433258,4.88139 -12.25462,11.424535 -18.938063,18.107979 -6.683443,6.683444 -13.228758,13.504805 -18.110147,18.938063 -2.440693,2.71663 -4.464557,5.085339 -5.888614,6.926765 -0.712029,0.92071 -1.272411,1.70699 -1.666671,2.35371 -0.39426,0.64673 -0.658865,1.09654 -0.658865,1.64066 0,0.54413 0.264605,0.99178 0.658865,1.63851 0.39426,0.64672 0.954642,1.43516 1.666671,2.35586 1.424057,1.84143 3.447921,4.21015 5.888614,6.92677 4.881389,5.43326 11.426704,12.25245 18.110147,18.93589 6.683443,6.68345 13.504805,13.22877 18.938063,18.11016 2.71663,2.44069 5.08534,4.46455 6.926763,5.88861 0.920712,0.71202 1.706985,1.27458 2.353712,1.66883 0.646726,0.39427 1.096526,0.6567 1.640666,0.6567 0.54414,0 0.99177,-0.26243 1.63849,-0.6567 0.64673,-0.39425 1.43517,-0.95681 2.35588,-1.66883 1.84142,-1.42406 4.21013,-3.44792 6.92677,-5.88861 5.43325,-4.88139 12.25244,-11.42671 18.93589,-18.11016 6.68344,-6.68344 13.22875,-13.50263 18.11014,-18.93589 2.4407,-2.71662 4.46457,-5.08534 5.88862,-6.92677 0.71202,-0.9207 1.27457,-1.70914 1.66885,-2.35586 0.39426,-0.64673 0.65669,-1.09438 0.65669,-1.63851 0,-0.54412 -0.26243,-0.99393 -0.65669,-1.64066 -0.39428,-0.64672 -0.95683,-1.433 -1.66885,-2.35371 -1.42405,-1.841426 -3.44792,-4.210135 -5.88862,-6.926765 -4.88139,-5.433258 -11.4267,-12.25462 -18.11014,-18.938063 -6.68345,-6.683443 -13.50264,-13.226591 -18.93589,-18.107979 -2.71664,-2.440693 -5.08535,-4.464557 -6.92677,-5.888614 -0.92071,-0.71203 -1.70915,-1.274579 -2.35588,-1.668839 -0.64672,-0.394261 -1.09435,-0.656698 -1.63849,-0.656698 z m 0,1.109668 c 0.007,0 0.4744,0.135941 1.06198,0.494149 0.5876,0.358209 1.35252,0.902316 2.25402,1.599486 1.80298,1.394336 4.15682,3.406423 6.86175,5.836598 5.40984,4.860348 12.22205,11.396307 18.89472,18.068966 6.67265,6.672661 13.2086,13.482711 18.06896,18.89255 2.43017,2.704921 4.44226,5.060921 5.8366,6.863911 0.69716,0.9015 1.2391,1.66643 1.59731,2.25402 0.35821,0.58758 0.49633,1.05543 0.49633,1.06198 0,0.007 -0.13812,0.47441 -0.49633,1.06198 -0.35821,0.5876 -0.90015,1.35252 -1.59731,2.25402 -1.39434,1.803 -3.40643,4.159 -5.8366,6.86391 -4.86036,5.40985 -11.39631,12.21989 -18.06896,18.89255 -6.67267,6.67266 -13.48488,13.20863 -18.89472,18.06897 -2.70493,2.43018 -5.05877,4.44227 -6.86175,5.8366 -0.9015,0.69717 -1.66642,1.24128 -2.25402,1.59949 -0.58758,0.3582 -1.05543,0.49414 -1.06198,0.49414 -0.007,0 -0.47441,-0.13594 -1.061989,-0.49414 -0.587589,-0.35821 -1.352521,-0.90232 -2.254017,-1.59949 -1.802993,-1.39433 -4.158991,-3.40642 -6.86391,-5.8366 -5.40984,-4.86034 -12.222057,-11.39631 -18.894718,-18.06897 -6.67266,-6.67266 -13.208618,-13.4827 -18.068967,-18.89255 -2.430174,-2.70491 -4.442261,-5.06091 -5.8366,-6.86391 -0.697167,-0.9015 -1.239106,-1.66642 -1.597315,-2.25402 -0.358208,-0.58757 -0.496317,-1.05543 -0.496317,-1.06198 0,-0.007 0.138109,-0.4744 0.496317,-1.06198 0.358208,-0.58759 0.900148,-1.35252 1.597315,-2.25402 1.394339,-1.80299 3.406426,-4.158991 5.8366,-6.863911 4.860349,-5.409839 11.396308,-12.219889 18.068967,-18.89255 6.672661,-6.67266 13.484878,-13.208616 18.894718,-18.068966 2.704919,-2.430175 5.060916,-4.442262 6.86391,-5.836598 0.901496,-0.69717 1.666427,-1.241277 2.254017,-1.599486 0.587589,-0.358208 1.055439,-0.494149 1.061989,-0.494149 z"
         id="path8"
         inkscape:label="Stroke3" />
      <path
         style="baseline-shift:baseline;display:inline;overflow:visible;opacity:1;vector-effect:none;stroke-width:0.881287;stroke-dashoffset:57.5868;enable-background:accumulate;stop-color:#000000;stop-opacity:1;fill:url(#linearGradient14);fill-opacity:1"
         d="m 100.99988,60.067721 c -0.64561,0 -0.99481,0.257796 -1.53192,0.585229 -0.537107,0.327434 -1.171753,0.781527 -1.910602,1.352914 -1.477699,1.142771 -3.363089,2.754777 -5.525256,4.697327 -4.324333,3.8851 -9.745413,9.086169 -15.057612,14.398368 -5.312199,5.312199 -10.513269,10.733279 -14.398368,15.057612 -1.94255,2.162166 -3.554555,4.047559 -4.697328,5.525249 -0.571386,0.73886 -1.025479,1.3735 -1.352913,1.91061 -0.327433,0.53711 -0.58695,0.88631 -0.58695,1.53192 0,0.64562 0.259517,0.99482 0.58695,1.53192 0.327434,0.53711 0.781527,1.17176 1.352913,1.91061 1.142773,1.47769 2.754778,3.36308 4.697328,5.52525 3.8851,4.32434 9.086169,9.74369 14.398368,15.0559 5.312199,5.31219 10.733279,10.51498 15.057612,14.40008 2.162166,1.94255 4.047557,3.55456 5.525256,4.69733 0.738848,0.57139 1.373495,1.02376 1.910602,1.35119 0.53711,0.32743 0.88631,0.58696 1.53192,0.58696 0.64562,0 0.9931,-0.25953 1.53021,-0.58696 0.53711,-0.32743 1.17175,-0.7798 1.9106,-1.35119 1.4777,-1.14277 3.36481,-2.75478 5.52698,-4.69733 4.32433,-3.8851 9.74369,-9.08789 15.05589,-14.40008 5.3122,-5.31221 10.51327,-10.73156 14.39837,-15.0559 1.94255,-2.16217 3.55627,-4.04756 4.69905,-5.52525 0.57138,-0.73885 1.02375,-1.3735 1.35119,-1.91061 0.32743,-0.5371 0.58695,-0.8863 0.58695,-1.53192 0,-0.64561 -0.25952,-0.99481 -0.58695,-1.53192 -0.32744,-0.53711 -0.77981,-1.17175 -1.35119,-1.91061 -1.14278,-1.47769 -2.7565,-3.363082 -4.69905,-5.525249 -3.8851,-4.324333 -9.08617,-9.745413 -14.39837,-15.057612 -5.3122,-5.312198 -10.73156,-10.513269 -15.05589,-14.398368 -2.16217,-1.94255 -4.04928,-3.554556 -5.52698,-4.697327 -0.73885,-0.571387 -1.37349,-1.02548 -1.9106,-1.352914 -0.53711,-0.327433 -0.88459,-0.585229 -1.53021,-0.585229 z m 0,1.762574 c -0.20827,0 0.1696,0.0586 0.61277,0.328761 0.44317,0.270168 1.0422,0.693247 1.75053,1.241031 1.41666,1.095565 3.28186,2.688867 5.42542,4.614707 4.28713,3.851679 9.69369,9.039612 14.98876,14.334681 5.29507,5.295069 10.483,10.699905 14.33469,14.98704 1.92584,2.143568 3.51741,4.010495 4.61298,5.427145 0.54778,0.70833 0.97259,1.30563 1.24275,1.7488 0.27017,0.44318 0.32877,0.82276 0.32877,0.61449 0,-0.20827 -0.0586,0.17132 -0.32877,0.6145 -0.27016,0.44317 -0.69497,1.04047 -1.24275,1.74879 -1.09557,1.41666 -2.68714,3.28358 -4.61298,5.42715 -3.85169,4.28714 -9.03962,9.69197 -14.33469,14.98704 -5.29507,5.29507 -10.70163,10.483 -14.98876,14.33468 -2.14356,1.92584 -4.00876,3.51915 -5.42542,4.61471 -0.70833,0.54778 -1.30736,0.97086 -1.75053,1.24103 -0.44317,0.27017 -0.82104,0.32876 -0.61277,0.32876 0.20828,0 -0.17132,-0.0586 -0.61449,-0.32876 -0.443169,-0.27017 -1.042194,-0.69325 -1.750522,-1.24103 -1.416656,-1.09556 -3.281854,-2.68887 -5.425422,-4.61471 -4.287135,-3.85168 -9.693692,-9.03961 -14.988761,-14.33468 -5.29507,-5.29507 -10.48128,-10.6999 -14.33296,-14.98704 -1.92584,-2.14357 -3.519141,-4.01049 -4.614707,-5.42715 -0.547783,-0.70832 -0.972584,-1.30562 -1.242753,-1.74879 -0.270168,-0.44318 -0.32876,-0.82277 -0.32876,-0.6145 0,0.20827 0.0586,-0.17131 0.32876,-0.61449 0.270169,-0.44317 0.69497,-1.04047 1.242753,-1.7488 1.095566,-1.41665 2.688867,-3.283577 4.614707,-5.427145 3.851679,-4.287135 9.03789,-9.69197 14.33296,-14.98704 5.295069,-5.29507 10.701626,-10.483001 14.988761,-14.334681 2.143568,-1.92584 4.008766,-3.519142 5.425422,-4.614707 0.708328,-0.547784 1.307353,-0.970863 1.750522,-1.241031 0.44317,-0.270169 0.82277,-0.328761 0.61449,-0.328761 z"
         id="path3"
         inkscape:label="Stroke" />
      <text
         xml:space="preserve"
         style="font-size:42.6391px;font-family:'Nimbus Sans';-inkscape-font-specification:'Nimbus Sans, Normal';writing-mode:lr-tb;direction:ltr;opacity:1;fill:url(#linearGradient2);fill-opacity:1;stroke-width:3.48946;stroke-linejoin:round;stroke-dashoffset:57.5868"
         x="73.156021"
         y="120.66871"
         id="text1"
         inkscape:label="Xp"><tspan
           sodipodi:role="line"
           id="tspan1"
           style="fill:url(#linearGradient2);fill-opacity:1;stroke-width:3.48946"
           x="73.156021"
           y="120.66871">XP</tspan></text>
    </g>
  </g>
</svg>
